# xmcd CD database file
#
# Track frame offsets:
#	150
#	41730
#	82165
#	110695
#	138230
#	181265
#	222015
#	256792
#	281577
#	302180
#
# Disc length: 4260 seconds
#
# Revision: 0
# Processed by: cddbd v1.5.2PL0 Copyright (c) Steve Scherf et al.
# Submitted via: CDex 1.70beta2
#
DISCID=8e10a20a
DTITLE=John Patitucci - Now
DYEAR=1900
DGENRE=Jazz
TTITLE0=Now
TTITLE1=Grace
TTITLE2=Out Of The Mouths Of Babes
TTITLE3=Hope
TTITLE4=Labor Day
TTITLE5=Espresso
TTITLE6=Forgotten But Not Gone
TTITLE7=Search For Peace
TTITLE8=Giant Steps
TTITLE9=Miya
EXTD=
EXTT0=
EXTT1=
EXTT2=
EXTT3=
EXTT4=
EXTT5=
EXTT6=
EXTT7=
EXTT8=
EXTT9=
PLAYORDER=
